<svg xmlns="http://www.w3.org/2000/svg" viewBox="0 0 400 700">
  <defs>
    <style>
      .box {
        fill: #2c3e50;
        stroke: #3498db;
        stroke-width: 2;
        rx: 8;
      }
      .text-main {
        fill: #ecf0f1;
        font-family: 'Liberation Sans', Arial, sans-serif;
        font-size: 16px;
        font-weight: bold;
        text-anchor: middle;
      }
      .text-sub {
        fill: #95a5a6;
        font-family: 'Liberation Sans', Arial, sans-serif;
        font-size: 12px;
        text-anchor: middle;
      }
      .arrow {
        fill: none;
        stroke: #3498db;
        stroke-width: 3;
        marker-end: url(#arrowhead);
      }
    </style>
    <marker id="arrowhead" markerWidth="10" markerHeight="10" refX="9" refY="3" orient="auto">
      <polygon points="0 0, 10 3, 0 6" fill="#3498db" />
    </marker>
  </defs>
  
  <!-- Input Gain -->
  <rect class="box" x="50" y="20" width="300" height="60"/>
  <text class="text-main" x="200" y="45">Input Gain</text>
  <text class="text-sub" x="200" y="65">PurestGain</text>
  <line class="arrow" x1="200" y1="80" x2="200" y2="110"/>
  
  <!-- Console -->
  <rect class="box" x="50" y="110" width="300" height="60"/>
  <text class="text-main" x="200" y="135">Console Emulation</text>
  <text class="text-sub" x="200" y="155">Channel9</text>
  <line class="arrow" x1="200" y1="170" x2="200" y2="200"/>
  
  <!-- High Pass -->
  <rect class="box" x="50" y="200" width="300" height="60"/>
  <text class="text-main" x="200" y="225">High Pass Filter</text>
  <text class="text-sub" x="200" y="245">Highpass2</text>
  <line class="arrow" x1="200" y1="260" x2="200" y2="290"/>
  
  <!-- Low Pass -->
  <rect class="box" x="50" y="290" width="300" height="60"/>
  <text class="text-main" x="200" y="315">Low Pass Filter</text>
  <text class="text-sub" x="200" y="335">Lowpass2</text>
  <line class="arrow" x1="200" y1="350" x2="200" y2="380"/>
  
  <!-- Shelves -->
  <rect class="box" x="50" y="380" width="300" height="60"/>
  <text class="text-main" x="200" y="405">Bass &amp; Treble Shelves</text>
  <text class="text-sub" x="200" y="425">Baxandall2</text>
  <line class="arrow" x1="200" y1="440" x2="200" y2="470"/>
  
  <!-- Parametric -->
  <rect class="box" x="50" y="470" width="300" height="60"/>
  <text class="text-main" x="200" y="495">Parametric Mid EQ</text>
  <text class="text-sub" x="200" y="515">Parametric</text>
  <line class="arrow" x1="200" y1="530" x2="200" y2="560"/>
  
  <!-- Compressor -->
  <rect class="box" x="50" y="560" width="300" height="60"/>
  <text class="text-main" x="200" y="585">Compressor</text>
  <text class="text-sub" x="200" y="605">Pressure4</text>
  <line class="arrow" x1="200" y1="620" x2="200" y2="650"/>
  
  <!-- Output Gain -->
  <rect class="box" x="50" y="650" width="300" height="60"/>
  <text class="text-main" x="200" y="675">Output Gain</text>
  <text class="text-sub" x="200" y="695">PurestGain</text>
</svg>
